<svg width="8" height="8" viewBox="0 0 8 8" fill="none" xmlns="http://www.w3.org/2000/svg">
<path d="M6.89908 7.23237C6.58641 7.54504 6.07974 7.54504 5.76774 7.23237L4.00041 5.21237L2.23308 7.2317C1.92041 7.54437 1.41374 7.54437 1.10174 7.2317C0.789077 6.91904 0.789077 6.41237 1.10174 6.10037L2.94041 4.00037L1.10108 1.89904C0.78841 1.58637 0.78841 1.08037 1.10108 0.767703C1.41374 0.455036 1.91974 0.455036 2.23241 0.767703L4.00041 2.78837L5.76774 0.767703C6.08041 0.455036 6.58641 0.455036 6.89908 0.767703C7.21174 1.08037 7.21174 1.58704 6.89908 1.89904L5.06041 4.00037L6.89908 6.10037C7.21174 6.41304 7.21174 6.9197 6.89908 7.23237Z" fill="#F8FAFC"/>
</svg>
