<svg width="10" height="12" viewBox="0 0 10 12" fill="none" xmlns="http://www.w3.org/2000/svg">
<path d="M9.34855 10.8486C8.87955 11.3176 8.11955 11.3176 7.65155 10.8486L5.00055 7.81855L2.34955 10.8476C1.88055 11.3166 1.12055 11.3166 0.652555 10.8476C0.183555 10.3786 0.183555 9.61856 0.652555 9.15055L3.41055 6.00056L0.651555 2.84855C0.182555 2.37955 0.182555 1.62055 0.651555 1.15155C1.12055 0.682555 1.87955 0.682555 2.34855 1.15155L5.00055 4.18255L7.65155 1.15155C8.12055 0.682555 8.87955 0.682555 9.34855 1.15155C9.81755 1.62055 9.81755 2.38055 9.34855 2.84855L6.59055 6.00056L9.34855 9.15055C9.81755 9.61955 9.81755 10.3796 9.34855 10.8486Z" fill="#CBD5E1"/>
</svg>
